<svg width="355" height="274" viewBox="0 0 355 274" fill="none" xmlns="http://www.w3.org/2000/svg">
<g clip-path="url(#clip0_64_379)">
<rect x="0.5" y="0.480469" width="354" height="273" rx="28" fill="#FF912B"/>
<path d="M173.235 103.473H141.654L136.853 118H110.83L143.296 28.9405H171.845L204.185 118H178.035L173.235 103.473ZM167.045 84.5237L157.444 55.7215L147.97 84.5237H167.045Z" fill="white"/>
<path d="M259.204 144.72C262.119 146.408 264.108 148.751 265.17 151.748C266.299 154.711 266.381 157.735 265.417 160.821C263.994 165.374 261.311 168.45 257.368 170.05C253.426 171.649 248.621 171.564 242.956 169.793L216.473 161.517L233.192 108.021L258.84 116.037C264.303 117.744 268.198 120.294 270.525 123.687C272.903 127.095 273.404 131 272.028 135.401C271.048 138.537 269.391 140.907 267.058 142.51C264.791 144.078 262.173 144.815 259.204 144.72ZM241.425 133.916L248.937 136.263C252.68 137.433 255.034 136.475 255.998 133.39C256.994 130.203 255.621 128.024 251.877 126.854L244.365 124.507L241.425 133.916ZM243.743 156.879C247.487 158.049 249.848 157.066 250.829 153.929C251.335 152.311 251.216 150.913 250.473 149.737C249.781 148.577 248.524 147.712 246.703 147.143L238.128 144.463L235.093 154.176L243.743 156.879Z" fill="white"/>
<path d="M114.575 216.601C112.539 209.482 112.2 202.73 113.558 196.344C114.965 189.87 117.966 184.309 122.561 179.663C127.137 174.949 132.984 171.574 140.103 169.538C149.138 166.954 157.431 167.212 164.981 170.31C172.512 173.34 178.351 178.742 182.499 186.515L160.835 192.71C158.751 190.344 156.341 188.775 153.602 188.003C150.932 187.212 148.091 187.247 145.08 188.108C140.425 189.439 137.174 192.182 135.327 196.339C133.528 200.408 133.422 205.214 135.007 210.759C136.612 216.372 139.263 220.464 142.96 223.035C146.706 225.518 150.906 226.094 155.561 224.763C158.573 223.902 161.003 222.429 162.851 220.346C164.767 218.243 165.984 215.637 166.501 212.527L188.166 206.332C188.755 215.123 186.663 222.83 181.893 229.451C177.102 236.004 170.189 240.573 161.154 243.156C154.035 245.192 147.297 245.453 140.94 243.938C134.564 242.355 129.077 239.222 124.48 234.539C119.932 229.768 116.63 223.788 114.575 216.601Z" fill="white"/>
</g>
<defs>
<clipPath id="clip0_64_379">
<rect x="0.0581055" y="0.480469" width="354.884" height="273" rx="18.267" fill="white"/>
</clipPath>
</defs>
</svg>
