<svg width="356" height="274" viewBox="0 0 356 274" fill="none" xmlns="http://www.w3.org/2000/svg">
<g clip-path="url(#clip0_64_325)">
<rect x="1" y="0.480469" width="354" height="273" rx="28" fill="#52DF3A"/>
<path d="M138.692 117.946V52.6123L117 71.279M117 173.946C117 168.995 119.285 164.247 123.354 160.746C127.422 157.246 132.939 155.279 138.692 155.279C144.445 155.279 149.963 157.246 154.031 160.746C158.099 164.247 160.385 168.995 160.385 173.946C160.385 179.462 153.866 187.572 149.538 192.612L117 220.612H160.385M214.615 155.279C214.615 158.971 215.888 162.58 218.271 165.65C220.655 168.719 224.043 171.112 228.006 172.525C231.97 173.938 236.332 174.307 240.54 173.587C244.748 172.867 248.613 171.089 251.646 168.478C254.68 165.868 256.746 162.542 257.583 158.921C258.42 155.3 257.991 151.546 256.349 148.136C254.707 144.725 251.927 141.809 248.359 139.758C244.792 137.707 240.598 136.612 236.308 136.612C240.598 136.612 244.792 135.518 248.359 133.466C251.927 131.415 254.707 128.5 256.349 125.089C257.991 121.678 258.42 117.925 257.583 114.304C256.746 110.683 254.68 107.357 251.646 104.746C248.613 102.136 244.748 100.358 240.54 99.6376C236.332 98.9174 231.97 99.287 228.006 100.7C224.043 102.113 220.655 104.505 218.271 107.575C215.888 110.645 214.615 114.254 214.615 117.946M122.423 117.946H154.962" stroke="white" stroke-width="18.6667" stroke-linecap="round" stroke-linejoin="round"/>
</g>
<defs>
<clipPath id="clip0_64_325">
<rect x="0.0582275" y="0.480469" width="355.884" height="273" rx="18.267" fill="white"/>
</clipPath>
</defs>
</svg>
