<svg width="356" height="274" viewBox="0 0 356 274" fill="none" xmlns="http://www.w3.org/2000/svg">
<g clip-path="url(#clip0_64_387)">
<path d="M1 28.4805C1 13.0165 13.536 0.480469 29 0.480469H327C342.464 0.480469 355 13.0165 355 28.4805V245.48C355 260.944 342.464 273.48 327 273.48H29C13.536 273.48 1 260.944 1 245.48V28.4805Z" fill="#FFD540"/>
<path d="M286.154 29.4703C289.532 25.0729 296.428 26.107 298.368 31.3018L313.219 71.0673C313.949 73.0222 315.506 74.5541 317.473 75.2518L357.478 89.4445C362.704 91.2986 363.852 98.177 359.51 101.627L326.28 128.039C324.647 129.338 323.671 131.292 323.615 133.378L322.479 175.811C322.331 181.354 316.144 184.571 311.521 181.509L276.133 158.067C274.393 156.914 272.233 156.59 270.232 157.182L229.525 169.214C224.207 170.786 219.236 165.896 220.719 160.553L232.079 119.653C232.637 117.642 232.278 115.487 231.097 113.767L207.074 78.7706C203.936 74.1987 207.051 67.9594 212.591 67.7196L254.999 65.8843C257.084 65.794 259.022 64.7863 260.293 63.1314L286.154 29.4703Z" fill="white"/>
<rect x="3.05444" y="98.895" width="74.1461" height="74.1461" rx="6.11963" transform="rotate(-56.4539 3.05444 98.895)" fill="white"/>
<path d="M125.394 239.224L118.241 235.599C92.8555 222.793 76.0888 214.312 71.9858 199.449C68.6229 187.268 75.5403 175.133 87.6826 171.781C94.5422 169.887 102.007 171.263 107.687 175.083C110.602 168.89 116.304 163.88 123.163 161.986C135.306 158.634 147.469 165.501 150.832 177.683C154.935 192.545 144.894 208.427 129.673 232.442L125.394 239.224Z" fill="white"/>
</g>
<defs>
<clipPath id="clip0_64_387">
<rect x="0.0581055" y="0.480469" width="355.884" height="273" rx="24" fill="white"/>
</clipPath>
</defs>
</svg>
